<svg xmlns="http://www.w3.org/2000/svg" width="24.553" height="35.135" viewBox="0 0 24.553 35.135">
  <g id="组_5267" data-name="组 5267" transform="translate(3346 -5796)">
    <g id="gkshougong5" transform="translate(-3346 5796)">
      <g id="gk-II备份-3">
        <path id="路径_3862-3" d="M12.523,31.22c4.273,0,5.827.787,5.827,1.958s-1.554,1.958-5.827,1.958S6.7,34.347,6.7,33.177C6.7,32.186,8.25,31.22,12.523,31.22Z" fill="rgba(25,25,25,0.54)"/>
        <g id="编组-4">
          <ellipse id="椭圆形" cx="12.277" cy="12.375" rx="12.277" ry="12.375" transform="translate(0)" fill="#ff9b00"/>
          <ellipse id="椭圆_877-9" cx="8.929" cy="9" rx="8.929" ry="9" transform="translate(3.348 3.375)" fill="#fff"/>
          <path id="矩形" d="M7.813,22.5h8.929l-4.464,6.75Z" fill="#ff9b00"/>
        </g>
      </g>
    </g>
    <path id="路径_4357" data-name="路径 4357" d="M413.845,63.035c-.016,0-.016.016-.032.016a3.269,3.269,0,1,0-3.732,0c-.016,0-.016-.016-.032-.016a4.751,4.751,0,0,0-2.871,4.354c0,2.632,9.505,2.632,9.505,0A4.673,4.673,0,0,0,413.845,63.035Zm0,0" transform="translate(-3745.396 5744.74)" fill="#ff9b00"/>
  </g>
</svg>
